<?xml version="1.0" encoding="UTF-8"?>
<svg id="Layer_1" data-name="Layer 1" xmlns="http://www.w3.org/2000/svg" xmlns:xlink="http://www.w3.org/1999/xlink" viewBox="0 0 1080 1080">
  <defs>
    <style>
      .cls-1 {
        fill: none;
      }

      .cls-2 {
        clip-path: url(#clippath-1);
      }

      .cls-3 {
        fill: #fff;
      }
    </style>
    <clipPath id="clippath-1">
      <rect class="cls-1" width="1080" height="1080"/>
    </clipPath>
  </defs>
  <g class="cls-2">
    <path class="cls-3" d="M284.35,609.61h-53.66c-1.26-.33-2.79-.48-4.8-.48-2.15,0-3.92.16-5.36.48h-53.81c-6.91,0-12.83,2.46-17.59,7.32-4.73,4.83-7.13,10.77-7.13,17.64s2.42,13.03,7.21,17.71c4.75,4.65,10.65,7.01,17.52,7.01h33.97v113.34c0,6.74,2.45,12.61,7.29,17.44,4.83,4.84,10.7,7.29,17.44,7.29s12.6-2.45,17.44-7.29c4.84-4.84,7.29-10.7,7.29-17.44v-113.34h33.97c6.89,0,12.8-2.41,17.56-7.17s7.17-10.66,7.17-17.56-2.39-12.58-7.1-17.48c-4.76-4.96-10.62-7.48-17.39-7.48"/>
    <path class="cls-3" d="M426.45,610.09c-25.82,0-48.15,9.25-66.39,27.49-18.24,18.24-27.48,40.58-27.48,66.39s9.25,48.15,27.48,66.39c18.24,18.24,40.58,27.49,66.39,27.49s48.15-9.25,66.39-27.49c18.24-18.24,27.49-40.57,27.49-66.39s-9.2-48.14-27.36-66.38c-18.16-18.24-40.54-27.49-66.52-27.49M459.75,737.26c-9.25,9.25-20.14,13.74-33.3,13.74s-23.87-4.5-33.19-13.76c-9.32-9.24-13.85-20.13-13.85-33.28s4.5-23.86,13.76-33.19c9.24-9.32,20.13-13.85,33.28-13.85s23.86,4.5,33.19,13.76c9.32,9.25,13.85,20.14,13.85,33.29s-4.49,24.05-13.74,33.3"/>
    <path class="cls-3" d="M706.46,741.88l-.18-.15c-4.76-3.99-10.66-6.3-17.54-6.86l-.4-.02c-3.71,0-7.52.87-11.36,2.6-2.37,1.09-4.08,2.24-5.28,3.56-6.74,3.96-14.17,5.96-22.1,5.96-7.52,0-14.71-1.84-21.38-5.46-6.63-3.6-12.08-8.72-16.18-15.22-4.24-7.08-6.39-14.75-6.39-22.81,0-7.35,1.84-14.47,5.46-21.14,3.61-6.65,8.74-12.1,15.27-16.22,6.92-4.37,14.73-6.59,23.23-6.59,7.78,0,15.19,2.01,22.04,5.98,4.64,3.92,10.1,5.9,16.22,5.9,7.05,0,13.16-2.53,18.15-7.52,4.99-4.99,7.52-11.02,7.52-17.91,0-6.49-2.28-12.27-6.79-17.17l-.15-.15c-2.42-2.42-5.24-4.33-8.37-5.68-15.06-9.19-31.58-13.85-49.1-13.85-7.64,0-15,.85-21.85,2.52-24.82,5.99-44.32,20.18-57.95,42.12-9.34,14.84-14.08,31.49-14.08,49.48,0,7.66.85,15.01,2.51,21.83,6,25.15,20.26,44.82,42.4,58.47,15.14,9.32,31.86,14.05,49.67,14.05s34.11-4.72,49.41-14.04l.13-.08c5.09-3.32,6.61-4.47,7.37-5.11l.33-.3c4.76-4.76,7.17-10.66,7.17-17.56,0-7.6-2.62-13.87-7.79-18.65"/>
    <path class="cls-3" d="M907.41,637.58h0c-18.16-18.24-40.54-27.49-66.52-27.49s-48.15,9.25-66.39,27.49c-18.24,18.24-27.48,40.58-27.48,66.39s9.25,48.15,27.48,66.39c18.24,18.24,40.58,27.49,66.39,27.49s48.15-9.25,66.39-27.49c18.24-18.24,27.49-40.57,27.49-66.39s-9.2-48.14-27.36-66.38M874.19,737.26c-9.25,9.25-20.14,13.74-33.3,13.74s-23.86-4.5-33.19-13.76c-9.32-9.24-13.85-20.13-13.85-33.28s4.5-23.86,13.76-33.19c9.24-9.32,20.13-13.85,33.28-13.85s23.86,4.5,33.19,13.76c9.32,9.25,13.85,20.14,13.85,33.29s-4.49,24.05-13.74,33.3"/>
    <path class="cls-3" d="M389.79,859.12c-.02-.34-.11-.68-.26-1.02l-.2-.59c-.12-.29-.26-.58-.41-.87v-.36l-.48-.66c-.61-.83-1.41-1.65-2.47-2.49l-.69-.55h-.38c-.28-.14-.6-.28-.97-.43l-.45-.18h-.38s-.06-.02-.09-.03c-.32-.09-.6-.16-.86-.2-.49-.15-1.06-.21-1.77-.21-.93,0-1.65.1-2.23.32-.09.03-.21.05-.36.08-.08.01-.14.03-.2.04h-.52l-.47.2c-.29.12-.58.26-.87.41h-.49l-.71.63c-.58.51-.96.87-1.17,1.08l-16.43,16.75-16.77-16.77-.21-.14c-.1-.07-.21-.16-.35-.28-.31-.27-.6-.49-.86-.67l-.63-.42h-.15c-.34-.2-.69-.36-1.04-.48l-.13-.04c-.53-.28-1.08-.45-1.64-.5-.53-.13-1.13-.19-1.82-.19-.82,0-1.43.08-1.93.26-.21.04-.51.1-.93.18l-.93-.04-.73.73s-.08.06-.13.09l-.55.29c-1.32.7-2.34,1.73-3.04,3.04l-.09.17c-.47.6-.73,1.24-.8,1.9-.26.69-.38,1.04-.43,1.35-.14.7-.2,1.28-.2,1.78v50.93c0,2.72.95,5.05,2.83,6.93s4.21,2.83,6.93,2.83,5.05-.95,6.93-2.83,2.83-4.21,2.83-6.93v-27.31l6.85,6.85c1.94,1.94,4.3,2.92,7.02,2.92,2.49,0,4.82-.95,6.92-2.82l6.95-6.94v27.48c0,2.72.95,5.05,2.83,6.93,1.88,1.88,4.21,2.83,6.93,2.83s4.98-.97,6.86-2.89c1.87-1.91,2.82-4.22,2.82-6.87v-50.93l-.02-.33c-.11-.85-.2-1.49-.42-2.02"/>
    <path class="cls-3" d="M464.57,851.62c-9.69,0-18.07,3.47-24.92,10.31-6.84,6.85-10.31,15.23-10.31,24.92s3.47,18.07,10.32,24.91c6.85,6.84,15.23,10.31,24.92,10.31s18.07-3.47,24.91-10.31c6.84-6.84,10.31-15.23,10.31-24.91s-3.45-18.07-10.27-24.91c-6.82-6.85-15.21-10.32-24.96-10.32M464.57,903.51c-4.61,0-8.45-1.59-11.76-4.88-3.3-3.27-4.91-7.13-4.91-11.79s1.6-8.45,4.88-11.76c3.27-3.3,7.13-4.91,11.79-4.91s8.45,1.6,11.76,4.88c3.3,3.27,4.9,7.13,4.9,11.79s-1.59,8.52-4.87,11.8-7.14,4.87-11.8,4.87"/>
    <path class="cls-3" d="M595.78,851.95l-.08-.04c-1.25-.54-2.53-.82-3.8-.82-1.94,0-3.75.53-5.38,1.58-1.67,1.07-2.88,2.57-3.59,4.45l-12.47,29.44-12.5-29.5c-.79-1.81-2.03-3.25-3.69-4.28-1.62-1-3.39-1.51-5.25-1.51-1.32,0-2.59.27-3.77.81-1.88.72-3.37,1.95-4.43,3.65-1.04,1.65-1.56,3.47-1.56,5.4,0,1.36.28,2.66.81,3.78l20.69,48.73,1.1,2.36c.66,1.74,1.81,3.17,3.43,4.23,1.55,1.02,3.28,1.61,5.16,1.76h.18s.18,0,.18,0c1.21-.07,2.38-.35,3.45-.81,1.09-.47,2.09-1.13,2.98-1.98.91-.87,1.64-1.94,2.19-3.18l1.06-2.47,20.41-48.87c.47-1.17.7-2.42.7-3.73,0-1.88-.53-3.66-1.58-5.29-1.04-1.61-2.46-2.86-4.22-3.7"/>
    <path class="cls-3" d="M650.71,851.53c-2.65,0-4.96.95-6.87,2.81-1.92,1.88-2.9,4.22-2.9,6.95v50.93c0,2.73.97,5.07,2.9,6.95,1.91,1.87,4.22,2.81,6.87,2.81s4.96-.95,6.87-2.81c1.92-1.88,2.9-4.22,2.9-6.95v-50.93c0-2.73-.97-5.07-2.9-6.95-1.91-1.87-4.22-2.81-6.87-2.81"/>
    <path class="cls-3" d="M751.74,905.28c-1.91-1.87-4.22-2.81-6.87-2.81h-25.77v-41.17c0-2.73-.97-5.07-2.9-6.95-1.91-1.87-4.22-2.81-6.87-2.81s-4.96.95-6.87,2.81c-1.92,1.88-2.9,4.22-2.9,6.95v50.93c0,2.73.97,5.07,2.89,6.95,1.91,1.87,4.22,2.82,6.87,2.82h35.53c2.65,0,4.96-.95,6.87-2.82,1.92-1.88,2.89-4.22,2.89-6.95s-.97-5.07-2.89-6.95"/>
    <path class="cls-3" d="M453.58,843.26c1.26,4.59,6.05,7.31,10.64,6.04l10.81-2.98c4.59-1.26,7.31-6.05,6.04-10.64l-.52-1.88c-1.26-4.59-6.05-7.31-10.64-6.04l-10.81,2.98c-4.59,1.26-7.31,6.05-6.04,10.64l.52,1.88Z"/>
    <path class="cls-3" d="M633.6,107.78l-.09-.08c-4.93-4.48-10.02-9.12-15.54-13.18-18.02-13.27-38.63-21.48-61.25-24.4-14.78-1.91-29.47-1.43-43.67,1.44-25.2,5.09-47.49,16.72-66.25,34.57-2.15,2.05-4.54,4.54-5.67,8.23l-.18.58v4.75l.53,1.22c.11.24.21.48.31.72,1.51,3.88,4.62,6.71,8.56,7.76,1.07.29,2.16.43,3.24.43,2.85,0,5.64-.98,7.98-2.87,1.03-.83,1.94-1.71,2.82-2.55.31-.29.61-.59.93-.88,7.17-6.72,15.08-12.36,23.51-16.75,19.77-10.3,41.14-14.21,63.53-11.63,18,2.08,34.39,8.31,48.72,18.51,3.79,2.69,7.28,5.73,10.98,8.95,1.49,1.3,2.99,2.6,4.5,3.87,5.56,4.68,13.03,4.43,17.76-.6,2.4-2.55,3.64-5.81,3.51-9.17-.13-3.36-1.64-6.52-4.25-8.9"/>
    <path class="cls-3" d="M544.77,103.86c-23.21-1.27-44.53,4.97-63.37,18.54-4.36,3.14-8.36,6.81-11.89,10.06-4.13,3.8-5.22,9.55-2.76,14.65,2.38,4.96,7.34,7.67,12.95,7.08,4.06-.42,6.63-2.85,8.7-4.8,13.99-13.19,30.74-20.05,49.8-20.37,12.98.12,23.86,2.58,34.24,7.74,6.63,3.29,12.99,7.87,19.46,13.98,2.53,2.39,5.69,3.58,8.84,3.58s6.56-1.31,9.04-3.91c4.92-5.17,4.7-12.91-.52-18.01-18.01-17.58-39.7-27.17-64.48-28.53"/>
    <path class="cls-3" d="M766.87,289.92h-39.09c-3,0-5.75,1.13-7.86,2.97-6.27-18.26-12.47-36.55-18.69-54.83-10.24-30.1-33.4-46.52-65.82-46.53-63.45-.02-126.9-.02-190.36,0-32.38.01-55.57,16.47-65.8,46.56-6.21,18.27-12.41,36.54-18.68,54.79-2.11-1.84-4.86-2.97-7.86-2.97h-39.09c-6.6,0-12,5.4-12,12v18.45c0,6.6,5.4,12,12,12h21.91c-7.11,7.37-11.04,16.58-11.12,27.9-.25,35.71-.16,71.43-.03,107.15,0,.14.01.28.01.42v41.67h21.49c-.12,13.89-.14,27.78-.02,41.67,0,.14.02.28.02.42v4.82c0,9.23,7.71,16.79,17.14,16.79h40.23c9.43,0,17.14-7.55,17.14-16.79v-46.91h239.68v46.91c0,9.23,7.71,16.79,17.14,16.79h40.23c9.43,0,17.14-7.55,17.14-16.79v-5.04c.03-.56.07-1.11.07-1.68.04-13.4.09-26.79-.05-40.19h21.47v-45c.2-34.92.27-69.84-.04-104.75-.1-11.1-4.05-20.14-11.05-27.39h21.9c6.6,0,12-5.4,12-12v-18.45c0-6.6-5.4-12-12-12M410.41,280.45c3.46-10.17,6.85-20.37,10.37-30.52,3.75-10.83,11.07-15.97,22.79-15.98,64.45-.02,128.91-.02,193.36,0,11.18,0,18.8,4.78,22.24,14.6,7.8,22.33,15.29,44.75,22.9,67.14.26.76.36,1.56.59,2.6h-285.14c4.38-12.86,8.65-25.35,12.89-37.84M600.11,417.92v1.32c0,3.14-2.57,5.71-5.71,5.71h-108.31c-3.14,0-5.71-2.57-5.71-5.71v-1.32c0-3.14,2.57-5.71,5.71-5.71h108.31c3.14,0,5.71,2.57,5.71,5.71M399.64,445.47c-17.75-.09-32.1-14.09-32.25-31.48-.15-17.34,14.63-31.93,32.41-31.96,17.91-.04,32.38,14.22,32.35,31.87-.03,17.69-14.42,31.66-32.5,31.57M607.89,445.87c0,3.14-2.57,5.71-5.71,5.71h-123.86c-3.14,0-5.71-2.57-5.71-5.71v-1.32c0-3.14,2.57-5.71,5.71-5.71h123.86c3.14,0,5.71,2.57,5.71,5.71v1.32ZM680.45,445.48c-18.04-.1-32.23-14.25-32.07-31.99.15-17.38,14.56-31.43,32.26-31.46,17.76-.03,32.55,14.49,32.49,31.89-.07,17.55-14.67,31.66-32.67,31.56"/>
  </g>
</svg>